<svg width="187" height="46" viewBox="0 0 187 46" fill="none" xmlns="http://www.w3.org/2000/svg">
<path d="M14.64 3.6V29H23.2V33H2V29H10.64V10.28L5.04 15.68L2.4 13.04L11.88 3.6H14.64ZM34.6753 29H48.3953V33H27.1953V29C33.3153 25.08 43.7153 19.96 43.7153 13.04C43.7153 11.28 42.4753 7.48 37.7153 7.48C34.3153 7.48 31.7953 9.72 31.7953 12.56H27.7953C27.7953 7.68 32.1553 3.48 37.7153 3.48C44.5153 3.48 47.7153 8.52 47.7153 13.04C47.7153 20.48 40.1553 25.36 34.6753 29ZM52.6706 30.56C52.6706 29.12 53.9106 27.96 55.4706 27.96C57.1106 27.96 58.3906 29.12 58.3906 30.56C58.3906 32 57.1106 33.12 55.4706 33.12C53.9106 33.12 52.6706 32 52.6706 30.56ZM70.1441 29H83.8641V33H62.6641V29C68.7841 25.08 79.1841 19.96 79.1841 13.04C79.1841 11.28 77.9441 7.48 73.1841 7.48C69.7841 7.48 67.2641 9.72 67.2641 12.56H63.2641C63.2641 7.68 67.6241 3.48 73.1841 3.48C79.9841 3.48 83.1841 8.52 83.1841 13.04C83.1841 20.48 75.6241 25.36 70.1441 29ZM97.8194 23.2H91.8594V33H87.8594V1.68H91.8594V19.48H97.8994C98.4594 19.4 99.1394 18.68 99.4994 17.72L100.859 14.2C101.899 11.88 103.899 10.6 106.059 10.6L107.619 11V14.6H106.059C105.419 14.6 104.779 15.16 104.379 16.16L103.019 19.68C102.779 20.32 101.819 21.12 101.459 21.32C101.819 21.44 102.659 22.24 102.939 22.8L105.139 27.56C105.579 28.56 106.179 29.12 106.819 29.12H108.379V32.72L106.819 33.12C104.619 33.12 102.699 31.84 101.619 29.52L99.4194 24.76C98.9794 23.84 98.4594 23.28 97.8194 23.2Z" fill="white" style="fill:white;fill-opacity:1;"/>
<path d="M160 1.5C171.421 1.5 181.216 8.51143 185.381 18.5C181.216 28.4886 171.421 35.5 160 35.5C148.578 35.5 138.783 28.4888 134.618 18.5C138.783 8.51125 148.578 1.5 160 1.5ZM160 4.66699C156.345 4.66699 152.841 6.12578 150.259 8.7207C147.677 11.3155 146.228 14.8336 146.228 18.5C146.228 22.1665 147.677 25.6845 150.259 28.2793C152.841 30.8742 156.345 32.333 160 32.333C163.655 32.333 167.159 30.8742 169.741 28.2793C172.323 25.6845 173.772 22.1665 173.772 18.5C173.772 14.8336 172.323 11.3155 169.741 8.7207C167.24 6.20678 163.873 4.75884 160.342 4.6709L160 4.66699ZM160 12.5996C161.553 12.5996 163.043 13.2196 164.144 14.3252C165.244 15.4311 165.863 16.9328 165.863 18.5C165.863 20.0672 165.244 21.5689 164.144 22.6748C163.043 23.7804 161.553 24.4004 160 24.4004C158.447 24.4004 156.957 23.7804 155.856 22.6748C154.756 21.5689 154.137 20.0672 154.137 18.5C154.137 16.9328 154.756 15.4311 155.856 14.3252C156.957 13.2196 158.447 12.5996 160 12.5996Z" stroke="white" style="stroke:white;stroke-opacity:1;" stroke-width="3"/>
</svg>
