<svg width="200" height="45" viewBox="0 0 200 45" fill="none" xmlns="http://www.w3.org/2000/svg">
<path d="M15.9858 6.24595C7.17763 9.68749 2.80445 19.6696 6.246 28.4778C9.68754 37.286 19.6696 41.6591 28.4778 38.2176C37.286 34.776 41.6592 24.794 38.2176 15.9858C34.7761 7.17758 24.794 2.8044 15.9858 6.24595ZM14.763 19.6221C16.0898 19.1037 17.5793 19.7563 18.0978 21.0831C18.6162 22.4099 17.9636 23.8994 16.6368 24.4179C15.31 24.9363 13.8204 24.2837 13.302 22.9569C12.7836 21.6301 13.4362 20.1405 14.763 19.6221ZM31.6581 26.3615C31.3951 26.9617 31.0717 27.5487 30.7073 28.0781C30.3332 28.6296 29.9021 29.1297 29.4203 29.5944C28.9288 30.0813 28.39 30.4944 27.8325 30.8597C26.6569 31.6168 25.3415 32.1308 23.9639 32.3712C23.3065 32.4807 22.6241 32.5262 21.9389 32.5175C21.2697 32.5026 20.6076 32.4112 19.9648 32.2754C19.3213 32.1294 18.6924 31.9249 18.0861 31.6643C17.485 31.4027 16.9102 31.0844 16.3695 30.7135L18.3236 27.8863C18.6786 28.1345 19.0753 28.3481 19.4754 28.5234C20.7022 29.0681 22.0633 29.2355 23.3854 29.0041C24.7581 28.7673 26.028 28.1235 27.0304 27.1562C27.3516 26.8464 27.6443 26.5109 27.8863 26.14C28.1346 25.785 28.3481 25.3883 28.5234 24.9881C28.6987 24.588 28.8456 24.1621 28.9382 23.7389L32.2914 24.4925C32.1556 25.1352 31.9433 25.7709 31.6803 26.3712L31.6581 26.3615ZM27.8269 20.0457C26.5 20.5641 25.0105 19.9115 24.4921 18.5847C23.9737 17.2579 24.6262 15.7683 25.9531 15.2499C27.2799 14.7315 28.7694 15.3841 29.2878 16.7109C29.8062 18.0377 29.1537 19.5273 27.8269 20.0457Z" fill="#E4F82B" style="fill:#E4F82B;fill:color(display-p3 0.8941 0.9725 0.1686);fill-opacity:1;"/>
<path d="M51.2636 15.4136H66.8636V18.1136H54.2636V37.4636H51.2636V15.4136ZM71.0636 31.4336L69.2636 37.4636H66.2636L72.8636 15.4136H80.0636L86.6636 37.4636H83.6636L81.8636 31.4336H71.0636ZM75.0536 18.1136L71.8736 28.7336H81.0536L77.8736 18.1136H75.0536ZM99.0548 15.2936C102.745 15.2936 108.205 17.0636 108.205 21.3536C108.205 23.3636 106.195 25.0736 104.965 25.3436C106.675 26.0036 109.045 27.8936 109.045 30.8336C109.045 34.9736 103.945 37.5536 99.2648 37.5536C95.1248 37.5536 91.9148 36.2336 89.4548 34.0736L91.2248 31.4636C93.1748 33.3836 95.8448 34.5536 99.2348 34.5536C103.255 34.5536 105.715 32.6636 105.715 30.8336C105.715 28.1636 103.255 26.9936 99.8948 26.9936H97.1048V23.9936H99.9548C102.055 23.9936 104.875 23.6636 104.875 21.3536C104.875 19.6736 102.055 18.2936 99.0548 18.2936C97.2548 18.2936 95.2748 18.5636 93.6848 19.2836L93.3548 20.7836H90.7148V17.4536C93.1148 15.9536 96.4148 15.2936 99.0548 15.2936ZM114.762 34.9136H128.562V37.4636H111.762V15.4136H127.662V17.8136H114.762V24.9236H125.262V27.3236H114.762V34.9136ZM141.744 18.1136V37.4636H138.744V18.1136H130.944V15.4136H149.544V18.1136H141.744ZM161.633 37.5536H160.433L157.703 36.9536V34.5536H161.633C162.113 34.5536 162.773 34.1036 162.983 33.3836L163.763 30.8336H159.863C157.763 30.8336 156.503 29.4836 155.993 27.8336L152.243 15.4136H155.243L158.723 27.0536C158.903 27.6236 159.473 28.1336 160.043 28.1336H164.573L168.383 15.4136H171.383L165.533 34.8536C165.023 36.5336 163.253 37.5536 161.633 37.5536ZM185.378 26.8136L190.658 15.4136H196.088V37.4636H193.088V17.9636H192.788L187.538 29.3636H182.948L177.668 17.9636H177.398V37.4636H174.398V15.4136H179.828L185.078 26.8136H185.378Z" fill="#20346A" style="fill:#20346A;fill:color(display-p3 0.1255 0.2039 0.4157);fill-opacity:1;"/>
</svg>
